<?xml version="1.0" encoding="utf-8"?>
<!-- Generator: Adobe Illustrator 25.3.0, SVG Export Plug-In . SVG Version: 6.00 Build 0)  -->
<svg version="1.1" id="Layer_1" xmlns="http://www.w3.org/2000/svg" xmlns:xlink="http://www.w3.org/1999/xlink" x="0px" y="0px"
	 viewBox="0 0 1920 2734.11" style="enable-background:new 0 0 1920 2734.11;" xml:space="preserve">
<style type="text/css">
	.st0{clip-path:url(#SVGID_2_);fill:url(#SVGID_3_);}
	.st1{clip-path:url(#SVGID_5_);}
	.st2{fill:url(#SVGID_6_);}
	.st3{clip-path:url(#SVGID_8_);}
	.st4{fill:url(#SVGID_9_);}
	.st5{clip-path:url(#SVGID_12_);}
	.st6{fill:url(#SVGID_13_);}
	.st7{clip-path:url(#SVGID_15_);}
	.st8{fill:url(#SVGID_16_);}
	.st9{clip-path:url(#SVGID_18_);}
	.st10{fill:url(#SVGID_19_);}
	.st11{clip-path:url(#SVGID_21_);}
	.st12{fill:url(#SVGID_22_);}
	.st13{clip-path:url(#SVGID_24_);fill:none;}
</style>
<g>
	<g>
		<defs>
			<rect id="SVGID_1_" y="-1.78" width="1919.82" height="2735.89"/>
		</defs>
		<clipPath id="SVGID_2_">
			<use xlink:href="#SVGID_1_"  style="overflow:visible;"/>
		</clipPath>
		
			<linearGradient id="SVGID_3_" gradientUnits="userSpaceOnUse" x1="2082.1387" y1="-7810.0254" x2="2082.1387" y2="-9973.5859" gradientTransform="matrix(1 0 0 -1 -1122.1387 -7239.4756)">
			<stop  offset="0" style="stop-color:#FFFFFF"/>
			<stop  offset="1" style="stop-color:#000000"/>
		</linearGradient>
		<polygon class="st0" points="1919.82,2734.11 0.18,2734.11 0.18,570.55 1919.82,570.55 		"/>
	</g>
	<g>
		<defs>
			<rect id="SVGID_4_" y="-1.78" width="1919.82" height="2735.89"/>
		</defs>
		<clipPath id="SVGID_5_">
			<use xlink:href="#SVGID_4_"  style="overflow:visible;"/>
		</clipPath>
		<g class="st1">
			
				<linearGradient id="SVGID_6_" gradientUnits="userSpaceOnUse" x1="2631.7886" y1="-10990.8145" x2="2631.7886" y2="-7558.1255" gradientTransform="matrix(1 0 0 -1 -1122.1387 -7239.4756)">
				<stop  offset="0" style="stop-color:#FFFFFF"/>
				<stop  offset="1" style="stop-color:#CBCCCE"/>
			</linearGradient>
			<path class="st2" d="M2293.65,318.65c-129.05,83-261.29,160.45-396.28,232.09c-129.34,68.64-262.63,132.45-404.35,163.35
				c-254.86,55.56-519.52,1.28-769.6-74.8C473.34,563.21,227.39,464.86-30.73,429.98c-136.81-18.49-292.62-11.93-389.03,92.47
				l248.84,3081.3c0,0,1670.97,130.76,2127.21,145.94c456.24,15.18,1482.77-77.7,1482.77-145.94S2293.65,318.65,2293.65,318.65z"/>
		</g>
	</g>
	<g>
		<defs>
			<rect id="SVGID_7_" y="-1.78" width="1919.82" height="2735.89"/>
		</defs>
		<clipPath id="SVGID_8_">
			<use xlink:href="#SVGID_7_"  style="overflow:visible;"/>
		</clipPath>
		<g class="st3">
			
				<linearGradient id="SVGID_9_" gradientUnits="userSpaceOnUse" x1="2393.5574" y1="-9805.8994" x2="2393.5574" y2="-7902.0581" gradientTransform="matrix(1 0 0 -1 -1100.5972 -7237.4189)">
				<stop  offset="0" style="stop-color:#FFFFFF"/>
				<stop  offset="1" style="stop-color:#A5BCCF"/>
			</linearGradient>
			<path class="st4" d="M-228.4,1221.52c-7.92-122.97,72.19-239,175.54-295.8c103.35-56.8,225.25-63.23,341.03-50.04
				c176.05,20.06,345.09,82.06,518.02,122.35c172.93,40.28,358.11,57.87,523.49-9.06c86.1-34.85,162.72-90.97,241.74-141.19
				c149.29-94.88,314.05-171.11,487.88-181.95c173.83-10.84,358.17,52.21,467.91,195.31c90.43,117.92,121.09,273.49,147.69,422.73
				c75.99,426.34,141.82,854.7,197.39,1284.55c-35.88,1-70.83-10.56-105.92-18.57c-76.36-17.44-155.12-18.25-233.24-18.98
				c-939.83-8.78-1879.67-17.56-2819.5-26.34c5.84-140.71,11.69-281.42,17.53-422.14c6.83-164.48,13.69-329.27,35.38-492.3
				c22.48-168.91,60.87-340.15,32.44-508.06"/>
		</g>
	</g>
	<g>
		<defs>
			<rect id="SVGID_11_" y="-1.78" width="1919.82" height="2735.89"/>
		</defs>
		<clipPath id="SVGID_12_">
			<use xlink:href="#SVGID_11_"  style="overflow:visible;"/>
		</clipPath>
		<g class="st5">
			
				<linearGradient id="SVGID_13_" gradientUnits="userSpaceOnUse" x1="2418.0737" y1="-10728.3145" x2="2418.0737" y2="-8089.7754" gradientTransform="matrix(1 0 0 -1 -1122.1387 -7239.4756)">
				<stop  offset="0" style="stop-color:#FFFFFF"/>
				<stop  offset="1" style="stop-color:#DFBB90"/>
			</linearGradient>
			<path class="st6" d="M-534.71,1154.49c60.96-118.07,194.04-168.72,317.07-202.61c200.25-55.15,413.73-91.35,612.44-30.25
				c98.39,30.26,188.92,83.16,281.8,128.97c532.12,262.44,1164.35,287.93,1713.79,69.1c167.32,344.5,248.33,727.38,371.87,1092
				c96,283.33,218.21,556.71,364.32,814.95c-961.32,92.38-1917.4,245.78-2861.4,459.09c-14.26,3.22-30.52,6.06-42.3-3.05
				c-7.55-5.84-11.52-15.41-15.17-24.52c-52.81-132.14-105.62-264.28-158.43-396.42c-34.33-85.9-68.77-172.15-91.24-262.33
				c-30.67-123.15-38.42-251.17-48.39-378.09C-131.94,1891.69-214.6,1365.67-337.23,850.3"/>
		</g>
	</g>
	<g>
		<defs>
			<rect id="SVGID_14_" y="-1.78" width="1919.82" height="2735.89"/>
		</defs>
		<clipPath id="SVGID_15_">
			<use xlink:href="#SVGID_14_"  style="overflow:visible;"/>
		</clipPath>
		<g class="st7">
			
				<linearGradient id="SVGID_16_" gradientUnits="userSpaceOnUse" x1="2219.4182" y1="-10322.2754" x2="2219.4182" y2="-8476.7051" gradientTransform="matrix(1 0 0 -1 -1122.1387 -7239.4756)">
				<stop  offset="0" style="stop-color:#FFFFFF"/>
				<stop  offset="1" style="stop-color:#E19F8F"/>
			</linearGradient>
			<path class="st8" d="M-536.06,1493.7c-9.58-51.12,15.63-104.38,53.37-137.85c37.74-33.47,86.17-50.22,134.24-61.51
				c198.62-46.63,407.15-11.6,601.21,53.04s378.33,158.16,569.31,232.39c344.14,133.76,710.15,204.19,1076.74,207.19
				c118.12,0.97,240.29-6.03,346.26-61.29c115.85-60.41,205.18-174.98,329.44-212.2c-6.03,527.27,47.18,1055.27,158.15,1569.33
				c-923.29-306.51-1930.87-95.71-2882.15-283.28c-15.02-2.96-30.89-6.47-42.04-17.53c-13.1-12.99-16.61-33.21-19.4-51.98
				c-73.43-495.01-128.1-993.14-163.86-1492.78"/>
		</g>
	</g>
	<g>
		<defs>
			<rect id="SVGID_17_" y="-1.78" width="1919.82" height="2735.89"/>
		</defs>
		<clipPath id="SVGID_18_">
			<use xlink:href="#SVGID_17_"  style="overflow:visible;"/>
		</clipPath>
		<g class="st9">
			
				<linearGradient id="SVGID_19_" gradientUnits="userSpaceOnUse" x1="2627.1487" y1="-11639.207" x2="2627.1487" y2="-8779.2305" gradientTransform="matrix(1 0 0 -1 -1122.1387 -7239.4756)">
				<stop  offset="0" style="stop-color:#FFFFFF"/>
				<stop  offset="1" style="stop-color:#EC785D"/>
			</linearGradient>
			<path class="st10" d="M3021.73,1872.82c-322.14,201.6-734.22,214.33-1082.45,69.24c-164.11-68.38-314.4-168.54-472-252.33
				c-157.6-83.79-328.08-152.39-504.43-149.91c-442.8,6.21-786.34,445.28-1225.19,508.04c-101.07,14.45-204.75,8.02-303.59-18.61
				c0,0,486.27,1996.04,474.87,2032.26c-11.41,36.22,1562.61,331.99,1739.41,338.03c176.79,6.04,1927.6-132.8,1927.6-150.91
				C3575.95,4230.51,3021.73,1872.82,3021.73,1872.82z"/>
		</g>
	</g>
	<g>
		<defs>
			<rect id="SVGID_20_" y="-1.78" width="1919.82" height="2735.89"/>
		</defs>
		<clipPath id="SVGID_21_">
			<use xlink:href="#SVGID_20_"  style="overflow:visible;"/>
		</clipPath>
		<g class="st11">
			
				<linearGradient id="SVGID_22_" gradientUnits="userSpaceOnUse" x1="3277.29" y1="-13112.9854" x2="3277.29" y2="-8801.7871" gradientTransform="matrix(1 0 0 -1 -1122.1387 -7239.4756)">
				<stop  offset="0" style="stop-color:#FFFFFF"/>
				<stop  offset="1" style="stop-color:#375A7D"/>
			</linearGradient>
			<path class="st12" d="M4517.6,2042.16c-33.87-225.51-227.45-398.73-440.57-454.56c-213.12-55.83-440.62-12.38-649.08,63.72
				c-316.98,115.72-604.48,303.98-907.72,454.78s-638.04,266.19-969.65,220.09c-172.63-24-336.15-90.68-501.79-145.63
				c-312.91-103.8-647.02-166.97-972.08-108.02s-640.4,256.01-786.49,563.84c-120.39,253.67-115.63,548.27-105.87,829.65
				c27.87,803.76,75.29,1606.6,142.22,2407.48c66.61-14.39,126.56-51.05,188.14-81.36c134.04-65.97,279.08-103,422.95-139.6
				c1730.93-440.34,3461.86-880.68,5192.8-1321.03c-66.27-251.31-132.53-502.63-198.8-753.94
				c-77.46-293.77-155.09-588.08-259.41-872.52c-108.08-294.69-246.45-586.4-260.19-902.27"/>
		</g>
	</g>
	<g>
		<defs>
			<rect id="SVGID_23_" x="0.18" y="570.55" width="1919.82" height="2735.89"/>
		</defs>
		<clipPath id="SVGID_24_">
			<use xlink:href="#SVGID_23_"  style="overflow:visible;"/>
		</clipPath>
		<rect id="SVGID_10_" x="0.18" y="570.55" class="st13" width="1919.63" height="2163.56"/>
	</g>
</g>
</svg>
