<?xml version="1.0" encoding="utf-8"?>
<!-- Generator: Adobe Illustrator 25.2.3, SVG Export Plug-In . SVG Version: 6.00 Build 0)  -->
<svg version="1.1" id="Layer_1" xmlns="http://www.w3.org/2000/svg" xmlns:xlink="http://www.w3.org/1999/xlink" x="0px" y="0px"
	 viewBox="0 0 1920 2734.11" style="enable-background:new 0 0 1920 2734.11;" xml:space="preserve">
<style type="text/css">
	.st0{clip-path:url(#SVGID_2_);fill:url(#SVGID_3_);}
	.st1{clip-path:url(#SVGID_2_);}
	.st2{fill:url(#SVGID_4_);}
	.st3{fill:url(#SVGID_5_);}
	.st4{fill:url(#SVGID_6_);}
	.st5{fill:url(#SVGID_7_);}
	.st6{fill:url(#SVGID_8_);}
	.st7{fill:url(#SVGID_9_);}
	.st8{clip-path:url(#SVGID_2_);fill:none;}
</style>
<g>
	<defs>
		<rect id="SVGID_1_" x="0.18" y="-1.78" width="1919.82" height="2735.89"/>
	</defs>
	<clipPath id="SVGID_2_">
		<use xlink:href="#SVGID_1_"  style="overflow:visible;"/>
	</clipPath>
	
		<linearGradient id="SVGID_3_" gradientUnits="userSpaceOnUse" x1="962.1386" y1="8037.6929" x2="962.1386" y2="10201.2578" gradientTransform="matrix(-1 0 0 -1 1922.1387 10199.4756)">
		<stop  offset="0" style="stop-color:#FFFFFF"/>
		<stop  offset="1" style="stop-color:#000000"/>
	</linearGradient>
	<polygon class="st0" points="0.18,-1.78 1919.82,-1.78 1919.82,2161.78 0.18,2161.78 	"/>
	<g class="st1">
		
			<linearGradient id="SVGID_4_" gradientUnits="userSpaceOnUse" x1="1511.8033" y1="11218.4844" x2="1511.8033" y2="7785.7983" gradientTransform="matrix(-1 0 0 -1 1922.1387 10199.4756)">
			<stop  offset="0" style="stop-color:#FFFFFF"/>
			<stop  offset="1" style="stop-color:#CBCCCE"/>
		</linearGradient>
		<path class="st2" d="M-373.65,2413.68c129.05-83,261.29-160.45,396.28-232.09c129.34-68.64,262.63-132.45,404.35-163.35
			c254.86-55.56,519.52-1.28,769.6,74.8c250.08,76.08,496.03,174.43,754.15,209.31c136.81,18.49,292.62,11.93,389.03-92.47
			l-248.84-3081.3c0,0-1670.97-130.76-2127.21-145.94c-456.24-15.18-1482.77,77.7-1482.77,145.94S-373.65,2413.68-373.65,2413.68z"
			/>
	</g>
	<g class="st1">
		
			<linearGradient id="SVGID_5_" gradientUnits="userSpaceOnUse" x1="1273.5634" y1="10033.5684" x2="1273.5634" y2="8129.7168" gradientTransform="matrix(-1 0 0 -1 1900.5972 10197.4189)">
			<stop  offset="0" style="stop-color:#FFFFFF"/>
			<stop  offset="1" style="stop-color:#A5BCCF"/>
		</linearGradient>
		<path class="st3" d="M2148.4,1510.81c7.92,122.97-72.19,239-175.54,295.8c-103.35,56.8-225.25,63.23-341.03,50.04
			c-176.05-20.06-345.09-82.06-518.02-122.35c-172.93-40.28-358.11-57.87-523.49,9.06c-86.1,34.85-162.72,90.97-241.74,141.19
			c-149.29,94.88-314.05,171.11-487.88,181.95s-358.17-52.21-467.91-195.31c-90.43-117.92-121.09-273.49-147.69-422.73
			c-75.99-426.34-141.82-854.7-197.39-1284.55c35.88-1,70.83,10.56,105.92,18.57c76.36,17.44,155.12,18.25,233.24,18.98
			c939.83,8.78,1879.67,17.56,2819.5,26.34c-5.84,140.71-11.69,281.42-17.53,422.14c-6.83,164.48-13.69,329.27-35.38,492.3
			c-22.48,168.91-60.87,340.15-32.44,508.06"/>
	</g>
	<g class="st1">
		
			<linearGradient id="SVGID_6_" gradientUnits="userSpaceOnUse" x1="1298.0754" y1="10955.9883" x2="1298.0754" y2="8317.4385" gradientTransform="matrix(-1 0 0 -1 1922.1387 10199.4756)">
			<stop  offset="0" style="stop-color:#FFFFFF"/>
			<stop  offset="1" style="stop-color:#DFBB90"/>
		</linearGradient>
		<path class="st4" d="M2454.71,1577.84c-60.96,118.07-194.04,168.72-317.07,202.61c-200.25,55.15-413.73,91.35-612.44,30.25
			c-98.39-30.26-188.92-83.16-281.8-128.97c-532.12-262.44-1164.35-287.93-1713.79-69.1c-167.32-344.5-248.33-727.38-371.87-1092
			c-96-283.33-218.21-556.71-364.32-814.95c961.32-92.38,1917.4-245.78,2861.4-459.09c14.26-3.22,30.52-6.06,42.3,3.05
			c7.55,5.84,11.52,15.41,15.17,24.52c52.81,132.14,105.62,264.28,158.43,396.42c34.33,85.9,68.77,172.15,91.24,262.33
			c30.67,123.15,38.42,251.17,48.39,378.09c41.59,529.64,124.25,1055.66,246.88,1571.03"/>
	</g>
	<g class="st1">
		
			<linearGradient id="SVGID_7_" gradientUnits="userSpaceOnUse" x1="1099.4194" y1="10549.9443" x2="1099.4194" y2="8704.376" gradientTransform="matrix(-1 0 0 -1 1922.1387 10199.4756)">
			<stop  offset="0" style="stop-color:#FFFFFF"/>
			<stop  offset="1" style="stop-color:#E19F8F"/>
		</linearGradient>
		<path class="st5" d="M2456.06,1238.63c9.58,51.12-15.63,104.38-53.37,137.85c-37.74,33.47-86.17,50.22-134.24,61.51
			c-198.62,46.63-407.15,11.6-601.21-53.04s-378.33-158.16-569.31-232.39C753.79,1018.8,387.78,948.37,21.19,945.37
			c-118.12-0.97-240.29,6.03-346.26,61.29c-115.85,60.41-205.18,174.98-329.44,212.2c6.03-527.27-47.18-1055.27-158.15-1569.33
			C110.63-43.96,1118.21-254.76,2069.49-67.19c15.02,2.96,30.89,6.47,42.04,17.53c13.1,12.99,16.61,33.21,19.4,51.98
			c73.43,495.01,128.1,993.14,163.86,1492.78"/>
	</g>
	<g class="st1">
		
			<linearGradient id="SVGID_8_" gradientUnits="userSpaceOnUse" x1="1507.1449" y1="11866.8643" x2="1507.1449" y2="9006.8984" gradientTransform="matrix(-1 0 0 -1 1922.1387 10199.4756)">
			<stop  offset="0" style="stop-color:#FFFFFF"/>
			<stop  offset="1" style="stop-color:#EC785D"/>
		</linearGradient>
		<path class="st6" d="M-1101.73,859.51c322.14-201.6,734.22-214.33,1082.45-69.24c164.11,68.38,314.4,168.54,472,252.33
			s328.08,152.39,504.43,149.91c442.8-6.21,786.34-445.28,1225.19-508.04c101.07-14.45,204.75-8.02,303.59,18.61
			c0,0-486.27-1996.04-474.87-2032.26c11.41-36.22-1562.61-331.99-1739.41-338.03c-176.79-6.04-1927.6,132.8-1927.6,150.91
			C-1655.95-1498.18-1101.73,859.51-1101.73,859.51z"/>
	</g>
	<g class="st1">
		
			<linearGradient id="SVGID_9_" gradientUnits="userSpaceOnUse" x1="2157.2866" y1="13340.6553" x2="2157.2866" y2="9029.4512" gradientTransform="matrix(-1 0 0 -1 1922.1387 10199.4756)">
			<stop  offset="0" style="stop-color:#FFFFFF"/>
			<stop  offset="1" style="stop-color:#375A7D"/>
		</linearGradient>
		<path class="st7" d="M-2597.6,690.17c33.87,225.51,227.45,398.73,440.57,454.56s440.62,12.38,649.08-63.72
			c316.98-115.72,604.48-303.98,907.72-454.78S37.81,360.04,369.42,406.14c172.63,24,336.15,90.68,501.79,145.63
			c312.91,103.8,647.02,166.97,972.08,108.02s640.4-256.01,786.49-563.84c120.39-253.67,115.63-548.27,105.87-829.65
			c-27.87-803.76-75.29-1606.6-142.22-2407.48c-66.61,14.39-126.56,51.05-188.14,81.36c-134.04,65.97-279.08,103-422.95,139.6
			c-1730.93,440.34-3461.86,880.68-5192.8,1321.03c66.27,251.31,132.53,502.63,198.8,753.94
			c77.46,293.77,155.09,588.08,259.41,872.52c108.08,294.69,246.45,586.4,260.19,902.27"/>
	</g>
	
		<rect id="SVGID_10_" x="0.18" y="-1.78" transform="matrix(-1 -1.224647e-16 1.224647e-16 -1 1920 2160)" class="st8" width="1919.63" height="2163.56"/>
</g>
</svg>
